{"title":"The.Resident.2011.BDRip.XVID.AC3.HQ.Hive-CM8","uid":6161308,"size":1639090921,"categoryP":"video","categoryS":"movies","magnet":"?xt=urn:btih:0e6feb3e4f9f6342ad70a643952f8fd7f482bb60&amp;dn=The.Resident.2011.BDRip.XVID.AC3.HQ.Hive-CM8&amp;tr=udp%3A%2F%2Ftracker.openbittorrent.com%3A80&amp;tr=udp%3A%2F%2Fopen.demonii.com%3A1337&amp;tr=udp%3A%2F%2Ftracker.coppersurfer.tk%3A6969&amp;tr=udp%3A%2F%2Fexodus.desync.com%3A6969","seeders":0,"leechers":1,"uploader":"TvTeam","files":5,"time":1297225493,"description":". \n  &lt;a href=&quot;\nhttp://www.torrentday.com/&quot; rel=&quot;nofollow&quot; target=&quot;_NEW&quot;&gt;\nhttp://www.torrentday.com/&lt;/a&gt;        :     The Hottest Private Tracker On The Net!!!\n &lt;a href=&quot;\nhttp://www.torrentday.com&quot; rel=&quot;nofollow&quot; target=&quot;_NEW&quot;&gt;\nhttp://www.torrentday.com&lt;/a&gt;          :     Once &amp; For all ;)\n\n\n               www . TorrentDay . Com \n\n(((((((((((((= Enjoy No RAR releases =))))))))))))))))))))\n\n\n...................................NFO:....................................\n\n.[img]http://img543.imageshack.us/img543/1749/residentl.jpg[/img]\n\n[color=blue][size=5][b]The Resident 2011 BDRip XVID AC3 HQ Hive-CM8[/b][/size][/color]\n\n\n\n[b]Thx Hive\n\nCM8 Doing It Right The First Time :D\n\nWhy download a touched up rip of a rip BRrip\nGet the real deal BDRip\nEnjoy\n\nSource US Bluray\n\nVideo: 720x304 @birate 1900 2pass\nAudio: DTS to AC3 5.1 @448\nSample: yes included[/b]\n &lt;a href=&quot;\nhttp://www.imdb.com/title/tt1334102/&quot; rel=&quot;nofollow&quot; target=&quot;_NEW&quot;&gt;\nhttp://www.imdb.com/title/tt1334102/&lt;/a&gt;\n\n\nGeneral\nComplete name                    : The.Resident.2011.BDRip.XVID.AC3.HQ.Hive-CM8.avi\nFormat                           : AVI\nFormat/Info                      : Audio Video Interleave\nFile size                        : 1.52 GiB\nDuration                         : 1h 31mn\nOverall bit rate                 : 2 379 Kbps\nWriting application              : Nandub v1.0rc2\nWriting library                  : Nandub build 1853/release\n\nVideo\nID                               : 0\nFormat                           : MPEG-4 Visual\nFormat profile                   : Advanced Simple@L5\nFormat settings, BVOP            : Yes\nFormat settings, QPel            : Yes\nFormat settings, GMC             : No warppoints\nFormat settings, Matrix          : Default (H.263)\nMuxing mode                      : Packed bitstream\nCodec ID                         : XVID\nCodec ID/Hint                    : XviD\nDuration                         : 1h 31mn\nBit rate                         : 1 921 Kbps\nWidth                            : 720 pixels\nHeight                           : 304 pixels\nDisplay aspect ratio             : 2.35:1\nFrame rate                       : 23.976 fps\nColor space                      : YUV\nChroma subsampling               : 4:2:0\nBit depth                        : 8 bits\nScan type                        : Progressive\nBits/(Pixel*Frame)               : 0.366\nStream size                      : 1.23 GiB (81%)\nWriting library                  : XviD 1.2.1 (UTC 2008-12-04)\n\nAudio\nID                               : 1\nFormat                           : AC-3\nFormat/Info                      : Audio Coding 3\nMode extension                   : CM (complete main)\nCodec ID                         : 2000\nDuration                         : 1h 31mn\nBit rate mode                    : Constant\nBit rate                         : 448 Kbps\nChannel(s)                       : 6 channels\nChannel positions                : Front: L C R, Side: L R, LFE\nSampling rate                    : 48.0 KHz\nBit depth                        : 16 bits\nStream size                      : 293 MiB (19%)\nAlignment                        : Split accross interleaves\nInterleave, duration             : 42 ms (1.00 video frame)\nInterleave, preload duration     : 500 ms\n\n\n\n\nJeffrey Dean Morgan ... Max\nHilary Swank ... Dr. Juliet Dermer\nChristopher Lee ... August\nLee Pace ... Jack\nMichael Massee ... Security tech / forgot name\nAunjanue Ellis\nKisha Sierra ...Good looking girl\nPenny Balfour ... Meth Addict\nAlexandria Morrow ... Art Model\nSandi K Shelby ... E.R. Doctor\nPeggy Miley ... Mrs. Rosenbaum\nMichael Showers ... August's ER Doctor\nSkippy the Dog ... Amelie\nCliff Gravel ... E. R. Patient\n\n\n\nWhen a young doctor suspects she may not be alone in her new Brooklyn loft, she learns \nthat her landlord has formed a frightening obsession with her.  \n\n\n\n[img]http://img13.imageshack.us/img13/7783/rrrereee.png[/img]\n[img]http://img192.imageshack.us/img192/3088/69291979.png[/img]\n[img]http://img819.imageshack.us/img819/8020/rree.png[/img]\n[img]http://img715.imageshack.us/img715/9461/rrerrereee.png[/img]\n[img]http://img26.imageshack.us/img26/8405/rrreee.png[/img]\n\n\n\n\n\nGreetz\n\niNK,LUSi,,MAGNET,CLASSiFiED,THC,LEGi0N,T0XiC,IMAGiNE,ViSiON,WBZ,FLAWL3SS,NOVA\nVik,Rapeseed,D2U,SAFC,goldadvance,MEMORY100,KaN1vE,Unevano,Pinnz,Wayne,Mr Hive\nand all P2P groups \nGreat Work Guys :D","torrent":{"xt":"urn:btih:0e6feb3e4f9f6342ad70a643952f8fd7f482bb60","amp;dn":"The.Resident.2011.BDRip.XVID.AC3.HQ.Hive-CM8","amp;tr":["udp%3A%2F%2Ftracker.openbittorrent.com%3A80","udp%3A%2F%2Fopen.demonii.com%3A1337","udp%3A%2F%2Ftracker.coppersurfer.tk%3A6969","udp%3A%2F%2Fexodus.desync.com%3A6969"],"infoHash":"0e6feb3e4f9f6342ad70a643952f8fd7f482bb60","infoHashBuffer":{"type":"Buffer","data":[14,111,235,62,79,159,99,66,173,112,166,67,149,47,143,215,244,130,187,96]},"announce":[],"urlList":[]}}